<?xml version="1.0" encoding="UTF-8" standalone="no"?>
<!-- Generator: Adobe Illustrator 18.1.1, SVG Export Plug-In . SVG Version: 6.00 Build 0)  -->

<svg
   xmlns:osb="http://www.openswatchbook.org/uri/2009/osb"
   xmlns:dc="http://purl.org/dc/elements/1.1/"
   xmlns:cc="http://creativecommons.org/ns#"
   xmlns:rdf="http://www.w3.org/1999/02/22-rdf-syntax-ns#"
   xmlns:svg="http://www.w3.org/2000/svg"
   xmlns="http://www.w3.org/2000/svg"
   xmlns:xlink="http://www.w3.org/1999/xlink"
   xmlns:sodipodi="http://sodipodi.sourceforge.net/DTD/sodipodi-0.dtd"
   xmlns:inkscape="http://www.inkscape.org/namespaces/inkscape"
   version="1.1"
   id="Capa_1"
   x="0px"
   y="0px"
   viewBox="0 0 44.29 44.29"
   style="enable-background:new 0 0 44.29 44.29;"
   xml:space="preserve"
   inkscape:version="0.91 r"
   sodipodi:docname="tv.svg"><metadata
     id="metadata41"><rdf:RDF><cc:Work
         rdf:about=""><dc:format>image/svg+xml</dc:format><dc:type
           rdf:resource="http://purl.org/dc/dcmitype/StillImage" /></cc:Work></rdf:RDF></metadata><defs
     id="defs39"><linearGradient
       id="linearGradient5982"
       osb:paint="solid"><stop
         style="stop-color:#c8c8c8;stop-opacity:1;"
         offset="0"
         id="stop5984" /></linearGradient><linearGradient
       inkscape:collect="always"
       xlink:href="#linearGradient5982"
       id="linearGradient5986"
       x1="0.0375339"
       y1="22.069845"
       x2="44.327586"
       y2="22.069845"
       gradientUnits="userSpaceOnUse" /></defs><sodipodi:namedview
     pagecolor="#ffffff"
     bordercolor="#666666"
     borderopacity="1"
     objecttolerance="10"
     gridtolerance="10"
     guidetolerance="10"
     inkscape:pageopacity="0"
     inkscape:pageshadow="2"
     inkscape:window-width="2495"
     inkscape:window-height="1416"
     id="namedview37"
     showgrid="false"
     inkscape:zoom="5.3285165"
     inkscape:cx="-5.9115891"
     inkscape:cy="22.145"
     inkscape:window-x="65"
     inkscape:window-y="24"
     inkscape:window-maximized="1"
     inkscape:current-layer="Capa_1" /><g
     id="g3"><path
       style="fill:#010002;"
       d="M4.348,1.79C1.947,1.79,0,3.737,0,6.138v29.481h16.395v2.769h-2.759v2.056   c0,1.136,1.052,2.056,2.349,2.056h12.319c1.298,0,2.35-0.92,2.35-2.056c0-1.135,0-2.056,0-2.056h-2.759v-2.769h12.047   c2.401,0,4.348-1.947,4.348-4.348V1.79H4.348z M39.535,28.116c0,1.104-0.896,2-2,2H4.755V9.292c0-1.104,0.896-2,2-2h32.78V28.116z"
       id="path5" /></g><g
     id="g7" /><g
     id="g9" /><g
     id="g11" /><g
     id="g13" /><g
     id="g15" /><g
     id="g17" /><g
     id="g19" /><g
     id="g21" /><g
     id="g23" /><g
     id="g25" /><g
     id="g27" /><g
     id="g29" /><g
     id="g31" /><g
     id="g33" /><g
     id="g35" /><path
     style="fill:url(#linearGradient5986);fill-opacity:1;fill-rule:evenodd;stroke:#aea79f;stroke-width:0.1876695"
     d="M 14.653355,41.979866 C 13.95366,41.553207 13.643572,40.76139 13.643572,39.401357 l 0,-1.004178 1.407522,0 1.407521,0 0,-1.407521 0,-1.407522 -8.1636233,0 -8.16362305,0 0,-15.235812 c 0,-15.0704627 0.004256,-15.2446042 0.39219026,-16.0459687 C 0.73926357,3.854769 1.2248584,3.2345209 1.6026585,2.9220264 3.0058053,1.7614242 2.1954144,1.8016272 24.187126,1.8016272 l 20.046574,0 -0.0082,15.0604768 c -0.0066,12.090031 -0.0578,15.199358 -0.25952,15.764619 -0.385806,1.081096 -1.133057,1.934159 -2.119926,2.42011 -0.882396,0.434508 -1.000851,0.442349 -7.511883,0.497332 l -6.615349,0.05586 0,1.398577 0,1.398575 1.407521,0 1.407521,0 0,1.332453 c 0,1.265114 -0.03225,1.364701 -0.638076,1.97053 l -0.638077,0.638076 -7.009455,-7.51e-4 c -6.558221,-7.5e-4 -7.047142,-0.02368 -7.594863,-0.357669 l 1e-6,4.8e-5 z m 24.305751,-12.384614 0.582857,-0.544468 0,-10.903371 0,-10.9033705 -16.754662,0 C 4.3742777,7.2440425 5.5371864,7.1706367 4.915869,8.3721321 4.6767713,8.8344961 4.6354365,10.478694 4.6354365,19.527075 l 0,10.612646 16.8704065,0 16.870409,0 0.582854,-0.544469 z"
     id="path5980"
     inkscape:connector-curvature="0" /></svg>